# xmcd
#
# Track frame offsets:
# 150
# 12701
# 22143
# 35619
# 50560
# 60114
# 74048
# 85104
# 99646
# 115203
# 124275
# 140233
#
# Disc length: 2067 seconds
#
#
# Revision: 1
# Processed by: cddbd v1.5.1PL2 Copyright (c) Steve Scherf et al.
# Submitted via: FreeRIP 2.944 
#
DISCID=b408110c
DTITLE=The Derailers - Genuine
DYEAR=2003
DGENRE=Country
TTITLE0=The Way To My Heart
TTITLE1=Take It Back
TTITLE2=Leave A Message, Juanita
TTITLE3=Alone With You
TTITLE4=Boomerange Heart
TTITLE5=Genuine
TTITLE6=Uncool
TTITLE7=Scratch My Itch
TTITLE8=Whole Other Worlc
TTITLE9=The Happy Go Lucky Guitar
TTITLE10=I Love Me Some Elvis
TTITLE11=The Wheel
EXTD=
EXTT0=
EXTT1=
EXTT2=
EXTT3=
EXTT4=
EXTT5=
EXTT6=
EXTT7=
EXTT8=
EXTT9=
EXTT10=
EXTT11=
PLAYORDER=
